<?xml version="1.0" encoding="UTF-8"?>
<svg id="Layer_1" xmlns="http://www.w3.org/2000/svg" version="1.1" viewBox="0 0 1025.7 426.3">
  <!-- Generator: Adobe Illustrator 29.8.1, SVG Export Plug-In . SVG Version: 2.1.1 Build 2)  -->
  <defs>
    <style>
      .st0 {
        fill: #ff9100;
      }

      .st1 {
        fill: #123d7c;
      }

      .st2 {
        fill: #fff;
      }

      .st3 {
        fill: #31a9ff;
      }
    </style>
  </defs>
  <g>
    <path class="st3" d="M773.3,397.4l-19-50.4-10.3,50.4h-13.1l15.3-75.3h13.1l19.1,50.4,10.2-50.4h13.1l-15.3,75.3h-13.1Z"/>
    <path class="st3" d="M866.7,352.7c-.3,5.9-1.4,11.6-3.4,17.1-1.9,5.5-4.6,10.5-7.9,14.7-3.3,4.3-7.3,7.7-12,10.3-4.6,2.6-9.8,3.9-15.4,3.9s-8.6-.9-12.1-2.6c-3.4-1.7-6.3-4-8.5-7-2.2-2.9-3.8-6.3-4.8-10.1-1-3.8-1.4-7.8-1.2-12,.3-6.6,1.5-12.7,3.5-18.3,2-5.7,4.7-10.5,8.1-14.7,3.4-4.1,7.4-7.4,12-9.8,4.6-2.4,9.6-3.6,15.1-3.6s8.7.8,12.1,2.5c3.4,1.7,6.2,3.9,8.4,6.8,2.2,2.9,3.8,6.2,4.8,10.1,1,3.9,1.4,8,1.1,12.5ZM829.5,386.5c3.6,0,6.8-1,9.6-2.9,2.9-1.9,5.3-4.4,7.3-7.6,2-3.1,3.7-6.7,4.8-10.6,1.2-4,1.9-7.9,2.1-11.9.1-2.8,0-5.4-.6-7.9-.5-2.4-1.4-4.6-2.6-6.4-1.2-1.8-2.8-3.3-4.7-4.4-1.9-1.1-4.2-1.6-6.9-1.6s-6.8,1-9.6,2.9c-2.8,2-5.3,4.5-7.3,7.7-2,3.2-3.7,6.7-4.8,10.7-1.2,4-1.9,7.9-2.1,11.8-.1,2.8,0,5.4.5,7.9.5,2.4,1.3,4.6,2.5,6.4,1.2,1.8,2.7,3.3,4.6,4.4,1.9,1.1,4.2,1.6,7,1.6Z"/>
    <path class="st3" d="M931,378.2l21.8-56.1h14.5l-32.8,75.3h-14.6l-2.2-58.5-25.8,58.5h-14.5l-2.4-75.3h13.2l.6,55.5,23.7-55.5h15.5l2.9,56.1Z"/>
  </g>
  <path class="st1" d="M963.2,390.2c0,1.4-.3,2.6-1,3.8-.7,1.2-1.6,2.1-2.8,2.8-1.2.7-2.5,1-3.8,1s-2.6-.3-3.8-1c-1.2-.7-2.1-1.6-2.8-2.8-.7-1.2-1-2.4-1-3.8s.3-2.6,1-3.8c.7-1.2,1.6-2.1,2.8-2.8,1.2-.7,2.5-1,3.8-1s2.6.3,3.8,1c1.2.7,2.1,1.6,2.8,2.8.7,1.2,1,2.4,1,3.8ZM961.7,390.2c0-1.7-.6-3.1-1.8-4.3-1.2-1.2-2.7-1.8-4.4-1.8s-3.2.6-4.4,1.8c-1.2,1.2-1.8,2.6-1.8,4.3s.6,3.1,1.8,4.3c1.2,1.2,2.7,1.8,4.4,1.8s3.2-.6,4.4-1.8c1.2-1.2,1.8-2.6,1.8-4.3ZM952,386.2h3.7c1,0,1.8.2,2.3.6.5.4.7,1,.7,1.7s-.2,1-.5,1.4c-.4.4-.9.7-1.7.9.3.1.5.2.7.4.2.2.4.5.7.8,0,0,.5.8,1.3,2.3h-2.4c-.8-1.5-1.3-2.5-1.6-2.8-.3-.3-.5-.5-.8-.5s-.1,0-.3,0v3.2h-2v-8.1ZM954.1,389.6h.9c.6,0,1,0,1.2-.3.2-.2.4-.4.4-.7s-.1-.5-.3-.7c-.2-.2-.6-.3-1.2-.3h-1v2Z"/>
  <g>
    <path class="st1" d="M489.8,295.4h-105.9l40.4-191.7h43.2l-32.3,152.7h62.7l-8.1,39Z"/>
    <path class="st1" d="M633.1,190.3c-7.4,35.3-36.2,53.1-62.3,53.1s-15.4-1.4-21.6-5.5c-1.4,18.4,13.5,24.4,30,24.4s25-3.2,33.5-6.9l-3.3,33.9c-5.4,2.3-25.1,8.6-49.5,8.6-43.9,0-55-33-47-72,8.7-40.5,34.5-79.8,82.4-79.8s44.2,14.4,37.8,44.2ZM589.1,178.8c-17.8,0-31.2,15.5-36.7,34.7,3.3,1.4,7.2,1.7,10.7,1.7,14.6,0,32.1-7.5,35.7-24.7,1.8-7.5-3-11.8-9.6-11.8Z"/>
    <path class="st1" d="M745.6,254.3c-2.9,13.8-5,28.7-4,42.5h-36.3l-1.7-12.1c-9.2,10-20.2,13.8-30.8,13.8-38.3,0-42.7-35.6-34.3-74.9,8.3-39,32.2-78.6,82.6-78.6s28.8,3.4,44.8,12.6l-20.3,96.7ZM719.6,182.9c-3.3-1.4-5.5-1.7-8.2-1.7-18,0-26.9,23.2-31.4,45.1-3.9,18.7-2.3,36.5,11,36.5s7.7-.3,12.5-3.7l16.1-76.1Z"/>
    <path class="st1" d="M801.1,295.4h-41.2l31.2-149h36.8l-2.7,16.1c10.4-12.3,23.4-18.7,36.5-18.7s8.8.9,12.8,2.3l-12.6,37.9c-6-1.4-12.6-2.3-15.3-2.3-7.7,0-16.7,1.7-22.8,5.2l-22.8,108.5Z"/>
    <path class="st1" d="M886.5,160.5c12.5-6.3,42-16.9,67.7-16.9s48.2,8.3,38.9,52.8l-20.8,99h-41.2l19.9-95.6c3.4-16.4-1.5-21-9.4-21s-12.7,1.4-18.7,4.3l-23.6,112.2h-41l28.2-134.9Z"/>
  </g>
  <g>
    <path class="st1" d="M322.2,209.9c-7.4,67.7-68.5,116.8-136.2,109.4-67.7-7.4-116.8-68.5-109.4-136.2,7.4-67.7,68.5-116.8,136.3-109.4,67.7,7.4,116.8,68.5,109.4,136.2Z"/>
    <path class="st0" d="M335.9,58.2l-13.6,63.8c-9.4-23.7-28.9-42.5-53.5-50.7l67.1-13.1Z"/>
    <path class="st3" d="M344.8,110.6l-8,37.5c7,19.9,9.8,41.7,7.4,64.1-8.7,79.8-80.8,137.7-160.6,128.9-79.9-8.7-137.7-80.8-129-160.6C63.3,100.7,135.4,42.9,215.3,51.6c8.5.9,16.8,2.6,24.7,4.9l40.9-8c-20.6-11.4-43.8-18.6-68.7-20.5-44.2-3.3-85.7,10.7-117.9,36.3l-29.2-6.2,5.7,29c-22.4,26.3-37,59.6-39.7,96.6-3.4,45.4,11.5,88.1,38.6,120.6l-7,27.1,29.7-4.5c25.9,21.3,58.4,35.2,94.4,37.9,44.8,3.4,86.8-11.1,119.2-37.4l27.6,5.9-5.4-27.6c22.4-26.3,37-59.6,39.8-96.6,2.7-35.8-6-69.8-23-98.5Z"/>
    <g>
      <path class="st2" d="M194.5,129.4h22.4l-17.6,68.9c-3.3,12.8-9,22.9-17.1,30.4-8.1,7.4-18.4,11.2-30.8,11.2s-9.7-.9-13.6-2.7c-3.9-1.8-7.1-4.3-9.7-7.4-2.5-3.1-4.4-6.9-5.5-11.2-1.1-4.3-1.4-8.9-.9-13.9.2-1.5.4-2.9.6-4.2.2-1.3.5-2.4.8-3.3l17.3-67.7h22.3l-17.8,69.7c-.5,1.8-.8,3.5-1,5-.5,4.8.2,8.5,2.3,11.2,2,2.7,5.3,4,10,4s9.3-1.8,12.7-5.3c3.5-3.5,6-8.5,7.7-14.9l17.8-69.7Z"/>
      <path class="st2" d="M224.1,158.1h20.9l-3.2,13.2c3.6-4.9,7.3-8.6,11-11.1,3.8-2.5,7.9-3.7,12.4-3.7s6.7.9,9.1,2.8c2.4,1.8,4.3,4.2,5.7,7.2,1.4,2.9,2.2,6.3,2.6,10,.4,3.7.3,7.5,0,11.2-.7,6.6-2.3,13.1-4.7,19.3-2.4,6.2-5.6,11.8-9.5,16.6-3.9,4.8-8.5,8.7-13.8,11.6-5.3,2.9-11.1,4.4-17.5,4.4s-3.9-.2-6.2-.6c-2.2-.4-4-.8-5.2-1.4l-8.7,33.9h-21.8l29.1-113.3ZM255.4,176.3c-5.1,0-11.3,5.6-18.4,16.9l-6.6,25.7c.7.4,1.7.8,2.9,1.1,1.2.3,2.6.5,4.2.5,3.4,0,6.4-1,9.1-3,2.7-2,5-4.6,7-7.7,2-3.1,3.5-6.5,4.7-10.3,1.2-3.7,2-7.4,2.3-11,.3-3.3.2-6.1-.6-8.6-.7-2.5-2.2-3.7-4.6-3.7Z"/>
    </g>
  </g>
</svg>